HIERARCHY
ROOT Hips
{
 OFFSET 0.000000 0.000000 0.000000
 CHANNELS 6 Xposition Yposition Zposition Yrotation Xrotation Zrotation
 JOINT Chest
 {
  OFFSET 0.000000 9.585900 0.002600
  CHANNELS 3 Yrotation Xrotation Zrotation
  JOINT Chest2
  {
   OFFSET 0.000000 9.601200 -0.005300
   CHANNELS 3 Yrotation Xrotation Zrotation
   JOINT Chest3
   {
    OFFSET 0.000000 9.561800 0.000000
    CHANNELS 3 Yrotation Xrotation Zrotation
    JOINT Chest4
    {
     OFFSET 0.000000 9.552100 0.000000
     CHANNELS 3 Yrotation Xrotation Zrotation
     JOINT Neck
     {
      OFFSET 0.000000 14.453000 0.000000
      CHANNELS 3 Yrotation Xrotation Zrotation
      JOINT Head
      {
       OFFSET 0.000000 8.936500 -0.011300
       CHANNELS 3 Yrotation Xrotation Zrotation
       End Site
       {
        OFFSET 0.000000 17.073600 -0.006000
       }
      }
     }
     JOINT RightCollar
     {
      OFFSET -2.921100 9.558500 0.000000
      CHANNELS 3 Yrotation Xrotation Zrotation
      JOINT RightShoulder
      {
       OFFSET -13.519700 0.000000 0.000000
       CHANNELS 3 Yrotation Xrotation Zrotation
       JOINT RightElbow
       {
        OFFSET 0.000000 -29.696600 0.000000
        CHANNELS 3 Yrotation Xrotation Zrotation
        JOINT RightWrist
        {
         OFFSET 0.000000 -24.004700 0.000000
         CHANNELS 3 Yrotation Xrotation Zrotation
         End Site
         {
          OFFSET 0.000000 -17.728500 0.000000
         }
        }
       }
      }
     }
     JOINT LeftCollar
     {
      OFFSET 2.921100 9.558500 0.000000
      CHANNELS 3 Yrotation Xrotation Zrotation
      JOINT LeftShoulder
      {
       OFFSET 13.519700 0.000000 0.000000
       CHANNELS 3 Yrotation Xrotation Zrotation
       JOINT LeftElbow
       {
        OFFSET 0.000000 -29.696600 0.000000
        CHANNELS 3 Yrotation Xrotation Zrotation
        JOINT LeftWrist
        {
         OFFSET 0.000000 -24.004700 0.000000
         CHANNELS 3 Yrotation Xrotation Zrotation
         End Site
         {
          OFFSET 0.000000 -17.728500 0.000000
         }
        }
       }
      }
     }
    }
   }
  }
 }
 JOINT RightHip
 {
  OFFSET -7.771700 -0.012900 -0.001300
  CHANNELS 3 Yrotation Xrotation Zrotation
  JOINT RightKnee
  {
   OFFSET 0.000000 -40.869800 0.001200
   CHANNELS 3 Yrotation Xrotation Zrotation
   JOINT RightAnkle
   {
    OFFSET 0.000000 -39.717900 0.002100
    CHANNELS 3 Yrotation Xrotation Zrotation
    JOINT RightToe
    {
     OFFSET 0.000000 -4.965400 11.033500
     CHANNELS 3 Yrotation Xrotation Zrotation
     End Site
     {
      OFFSET 0.000000 -1.423100 5.872300
     }
    }
   }
  }
 }
 JOINT LeftHip
 {
  OFFSET 7.771700 -0.012900 -0.001300
  CHANNELS 3 Yrotation Xrotation Zrotation
  JOINT LeftKnee
  {
   OFFSET 0.000000 -40.869800 0.001200
   CHANNELS 3 Yrotation Xrotation Zrotation
   JOINT LeftAnkle
   {
    OFFSET 0.000000 -39.717900 0.002100
    CHANNELS 3 Yrotation Xrotation Zrotation
    JOINT LeftToe
    {
     OFFSET 0.000000 -4.965400 11.033500
     CHANNELS 3 Yrotation Xrotation Zrotation
     End Site
     {
      OFFSET 0.000000 -1.423100 5.872300
     }
    }
   }
  }
 }
}
MOTION
Frames: 13
Frame Time: 0.008333
-11.926303 57.658150 43.610554 -177.840738 -29.787449 -0.720406 1.855257 19.483383 4.141456 0.151849 2.371533 0.326415 0.238755 3.955097 0.535568 1.298492 16.929409 2.468399 -1.264468 11.984452 -3.198455 -1.038662 -13.579264 -5.560226 3.807360 -1.901419 -2.497530 19.508592 -24.652084 -20.926155 126.042859 -70.711997 -78.723664 21.655564 -19.333373 -59.322367 -9.240857 -5.336621 -1.495692 -0.282690 -9.342129 12.808758 36.826614 -25.193615 -89.647930 -1.834215 -4.464762 -17.658283 10.235546 -41.026455 -8.018025 -0.740208 67.908097 -1.420425 5.845852 3.809227 8.510748 -0.048104 0.115588 -0.018058 -10.177406 -49.420311 1.469785 23.518594 71.011728 22.728739 -13.329004 29.185685 -0.118089 0.329745 -19.332938 -5.726545
-11.925162 57.657914 43.603378 -177.854374 -29.752512 -0.751764 1.870421 19.483325 4.175585 0.151708 2.372977 0.325830 0.221737 3.997309 0.537295 1.321338 16.861646 2.465226 -1.245803 11.953768 -3.182940 -0.985453 -13.667071 -5.579917 3.823404 -1.860907 -2.489542 19.477536 -24.581859 -20.837710 125.838681 -70.791677 -78.590342 21.640593 -19.355337 -59.272189 -9.274470 -5.355678 -1.500289 -0.430824 -9.364994 12.988518 36.775988 -25.059305 -89.637250 -1.795584 -4.504929 -17.589788 10.215088 -41.065008 -7.974885 -0.731350 67.909053 -1.408857 5.840909 3.810130 8.500818 -0.047418 0.116193 -0.016220 -10.208880 -49.443337 1.519607 23.511171 71.042613 22.746274 -13.305154 29.068163 -0.118493 0.323597 -19.254867 -5.731919
-11.930337 57.659491 43.593215 -177.862053 -29.738297 -0.760568 1.870922 19.505131 4.183950 0.150083 2.373765 0.325790 0.225805 3.991802 0.538451 1.291312 16.909527 2.474655 -1.202225 11.870133 -3.192478 -0.958812 -13.713201 -5.593363 3.873257 -1.915388 -2.512253 19.475336 -24.484984 -20.768678 125.624568 -70.904457 -78.454004 21.622318 -19.364442 -59.218117 -9.273201 -5.440692 -1.516172 -0.570597 -9.386452 13.164519 36.726018 -24.935886 -89.626933 -1.752224 -4.535921 -17.525772 10.213159 -41.078937 -7.965409 -0.704148 67.919134 -1.381301 5.824947 3.804085 8.495215 -0.038041 0.112842 -0.013751 -10.207441 -49.449753 1.512302 23.519312 71.059636 22.784364 -13.293128 28.993586 -0.127346 0.327581 -19.208640 -5.737363
-11.940830 57.659666 43.585972 -177.858831 -29.705251 -0.751979 1.849476 19.509279 4.166050 0.136160 2.414195 0.326427 0.236390 3.956821 0.539008 1.277407 16.927849 2.479232 -1.168896 11.808368 -3.192672 -0.892591 -13.826687 -5.609448 3.914367 -1.953565 -2.527078 19.492884 -24.411528 -20.749262 125.397905 -71.071938 -78.296024 21.601717 -19.370063 -59.164123 -9.270536 -5.502739 -1.529911 -0.715881 -9.408034 13.333686 36.680132 -24.821209 -89.616123 -1.707417 -4.559069 -17.471082 10.224991 -41.111089 -7.994551 -0.680999 67.934232 -1.361346 5.818788 3.796672 8.495533 -0.046981 0.110678 -0.012366 -10.191744 -49.480250 1.469026 23.558528 71.060016 22.847552 -13.279844 28.952180 -0.121200 0.314459 -19.180707 -5.745184
-11.955818 57.661014 43.577378 -177.866646 -29.684547 -0.718385 1.836749 19.508043 4.130056 0.129907 2.425296 0.325836 0.223328 3.979170 0.539907 1.271255 16.925803 2.479341 -1.138407 11.760415 -3.198107 -0.834610 -13.931422 -5.610536 3.954669 -1.986984 -2.537636 19.503685 -24.377824 -20.750044 125.151945 -71.282245 -78.084265 21.575760 -19.378375 -59.106798 -9.246121 -5.552298 -1.537554 -0.879780 -9.428437 13.490389 36.640153 -24.713063 -89.599340 -1.669530 -4.581345 -17.432281 10.264815 -41.127923 -8.053118 -0.647564 67.953000 -1.330813 5.816366 3.781385 8.500069 -0.051983 0.112912 -0.012571 -10.120306 -49.504338 1.344316 23.664429 71.047849 23.003184 -13.207116 28.936740 -0.074412 0.248449 -19.174817 -5.770770
-11.957125 57.664702 43.565385 -177.890502 -29.688433 -0.763290 1.868562 19.529323 4.185203 0.134494 2.416495 0.326974 0.204484 4.010960 0.537883 1.259840 16.935149 2.481347 -1.116433 11.717523 -3.191593 -0.799308 -13.977259 -5.627423 3.993605 -2.030876 -2.551267 19.554913 -24.274308 -20.760160 124.983355 -71.456349 -78.001965 21.549956 -19.387212 -59.052818 -9.259877 -5.598697 -1.551483 -1.005165 -9.452236 13.651075 36.605912 -24.615054 -89.581608 -1.639820 -4.602195 -17.406225 10.235407 -41.122008 -7.978140 -0.624875 67.944998 -1.307439 5.814030 3.779567 8.498393 -0.047691 0.114371 -0.014078 -10.144923 -49.493536 1.375154 23.596786 71.089465 23.006152 -13.168369 28.859533 -0.121710 0.253561 -19.134938 -5.767214
-11.964372 57.666886 43.557121 -177.891167 -29.673619 -0.784157 1.858077 19.546971 4.195490 0.133297 2.419648 0.327650 0.201105 4.018620 0.537273 1.248315 16.945550 2.484027 -1.095928 11.674743 -3.183384 -0.762425 -14.023939 -5.644739 4.035978 -2.066195 -2.554914 19.622756 -24.182828 -20.801543 124.825093 -71.626272 -77.929961 21.531879 -19.397362 -59.013183 -9.268360 -5.643529 -1.568281 -1.133583 -9.478412 13.804767 36.577013 -24.531823 -89.566579 -1.614273 -4.618341 -17.382145 10.219774 -41.134906 -7.953814 -0.592454 67.948149 -1.281496 5.794518 3.779895 8.500593 -0.046862 0.111826 -0.014341 -10.150462 -49.507570 1.357919 23.611559 71.102988 23.068086 -13.137189 28.823728 -0.131135 0.223139 -19.104071 -5.766284
-11.972744 57.669311 43.549601 -177.886463 -29.661669 -0.798619 1.840189 19.570683 4.194891 0.131303 2.423216 0.328715 0.199121 4.023115 0.534614 1.239989 16.956160 2.486239 -1.075486 11.630043 -3.176295 -0.706112 -14.159452 -5.627394 4.070382 -2.096327 -2.553307 19.689895 -24.120558 -20.853628 124.658974 -71.788149 -77.831179 21.522232 -19.417184 -58.981891 -9.277971 -5.679970 -1.580889 -1.257926 -9.512974 13.947069 36.555002 -24.461361 -89.552545 -1.589855 -4.631694 -17.356370 10.209010 -41.143058 -7.942625 -0.558142 67.951684 -1.255848 5.784866 3.777782 8.508411 -0.044969 0.109198 -0.015471 -10.148347 -49.520043 1.325834 23.623078 71.111234 23.127506 -13.132584 28.799633 -0.134420 0.228658 -19.086578 -5.788721
-11.980900 57.670699 43.545082 -177.888009 -29.638425 -0.805965 1.811076 19.607259 4.171046 0.145297 2.402668 0.338992 0.199507 4.027681 0.534407 1.242996 16.953485 2.489200 -1.061738 11.596308 -3.169678 -0.673285 -14.258830 -5.610519 4.089902 -2.114955 -2.549099 19.756118 -24.060070 -20.906932 124.501164 -71.925851 -77.739254 21.519116 -19.445078 -58.951029 -9.339267 -5.679614 -1.605325 -1.336006 -9.567610 14.098801 36.543656 -24.403493 -89.546298 -1.565269 -4.641713 -17.330632 10.211229 -41.163172 -7.938744 -0.540552 67.953003 -1.245395 5.772684 3.776094 8.515130 -0.040995 0.110327 -0.014895 -10.140286 -49.546422 1.295039 23.665540 71.110762 23.205226 -13.107694 28.800437 -0.130708 0.206734 -19.087553 -5.795512
-11.986205 57.670472 43.544677 -177.905982 -29.596801 -0.814907 1.812459 19.598508 4.169209 0.124410 2.441954 0.327631 0.232777 3.977055 0.551712 1.248645 16.945552 2.491276 -1.057486 11.585040 -3.167278 -0.660487 -14.316990 -5.595892 4.108177 -2.104880 -2.545649 19.799313 -24.005265 -20.959627 124.372403 -72.043484 -77.668094 21.514383 -19.466777 -58.921549 -9.388259 -5.657887 -1.629604 -1.425215 -9.610626 14.232920 36.538266 -24.366867 -89.549007 -1.544713 -4.650992 -17.305146 10.222717 -41.204657 -7.925724 -0.543609 67.946733 -1.252834 5.770603 3.781716 8.520731 -0.041474 0.116800 -0.014575 -10.138864 -49.589479 1.290955 23.700899 71.110619 23.274117 -13.089459 28.797401 -0.124457 0.199807 -19.087560 -5.813531
-11.990020 57.671799 43.542730 -177.911230 -29.575977 -0.831929 1.802675 19.610308 4.168884 0.123182 2.445245 0.327349 0.246677 3.963010 0.559888 1.234025 16.976557 2.490347 -1.042799 11.540707 -3.158383 -0.642418 -14.342959 -5.604239 4.142213 -2.119215 -2.548856 19.837509 -23.967070 -21.015531 124.281885 -72.146221 -77.624783 21.502885 -19.479429 -58.891490 -9.402660 -5.676553 -1.647956 -1.511694 -9.643934 14.346969 36.537218 -24.358418 -89.552290 -1.530965 -4.661518 -17.281500 10.216792 -41.222904 -7.902696 -0.522926 67.940557 -1.238990 5.760698 3.783900 8.526411 -0.040607 0.116847 -0.013783 -10.154828 -49.610633 1.287585 23.717117 71.109987 23.334213 -13.103675 28.795790 -0.154526 0.206342 -19.083896 -5.822079
-11.992983 57.673564 43.541153 -177.908921 -29.562774 -0.849897 1.784749 19.629943 4.163064 0.122865 2.448712 0.327550 0.243265 3.966331 0.561422 1.196787 17.037774 2.476915 -1.011206 11.461647 -3.134745 -0.585792 -14.430039 -5.606175 4.214216 -2.210204 -2.550909 19.862384 -23.905217 -21.053967 124.220391 -72.237188 -77.603196 21.488900 -19.488983 -58.862440 -9.376206 -5.734919 -1.653320 -1.588354 -9.673595 14.448587 36.547791 -24.376134 -89.554337 -1.518073 -4.669106 -17.262924 10.203527 -41.232325 -7.878673 -0.520030 67.933296 -1.244747 5.761425 3.784733 8.533114 -0.040054 0.116888 -0.012674 -10.184183 -49.624838 1.286667 23.741106 71.107432 23.394694 -13.108102 28.801832 -0.193960 0.197097 -19.076729 -5.815041
-11.988542 57.674340 43.542282 -177.916070 -29.539387 -0.899180 1.782624 19.645636 4.187952 0.134512 2.436176 0.335429 0.236563 3.981781 0.561142 1.196008 17.048091 2.473442 -1.001766 11.424663 -3.120697 -0.562912 -14.506976 -5.587074 4.245224 -2.240412 -2.546263 19.875452 -23.860630 -21.094824 124.182257 -72.318972 -77.595923 21.505522 -19.503743 -58.850838 -9.388966 -5.743096 -1.665382 -1.655846 -9.699725 14.536838 36.570688 -24.412203 -89.557608 -1.490611 -4.686760 -17.249691 10.166716 -41.256165 -7.800975 -0.535243 67.913550 -1.267207 5.758881 3.798118 8.536645 -0.040672 0.117011 -0.012475 -10.263879 -49.645468 1.348791 23.751511 71.110000 23.465462 -13.159772 28.791931 -0.298036 0.233348 -19.069524 -5.801719
